<svg xmlns="http://www.w3.org/2000/svg" viewBox="0 0 1032.59 449.71"><defs><style>.cls-1{fill:#fff;}.cls-2{fill:#39f0b6;}</style></defs><g id="Layer_2" data-name="Layer 2"><g id="Layer_3" data-name="Layer 3"><path class="cls-1" d="M0,43.59Q54.17,26.15,106.42,13.27q25.26-7.11,45.9-3.55a82.6,82.6,0,0,1,36,15.07,88.13,88.13,0,0,1,25,29.61,128,128,0,0,1,13.22,39.76,160.67,160.67,0,0,1,.7,45.48,167,167,0,0,1-13,47,182.52,182.52,0,0,1-27.62,44.09,178.09,178.09,0,0,1-43,36.78,123.42,123.42,0,0,1-22.87,7.59q-12.54,2.93-33.73,5.18t-53.24,2.11Zm99.67,160.2q17-6.09,26.88-15.54t14.36-18.85a63.64,63.64,0,0,0,5.71-18.26,55.92,55.92,0,0,0,.66-13.77l-.67-5.51c-.05-.41-.59-2.37-1.64-5.87a61.22,61.22,0,0,0-5.53-12.23,32.15,32.15,0,0,0-10.05-11.07q-6.09-4.08-15.48-2T92.07,115.46Z"/><path class="cls-1" d="M300.45,64.37l4.13,34,.61-.07q3.84-35,41.85-39.6a126.57,126.57,0,0,1,15.74-1l-8,67.22a32.59,32.59,0,0,0-4.63.25L344,126a32.32,32.32,0,0,0-21.2,11.12q-8.32,9.57-6.13,27.65l9.55,78.77-63.69,13.32L238.9,77.43Z"/><path class="cls-1" d="M484.74,206.84l-.61.08a43.88,43.88,0,0,1-19,18.79,80.81,80.81,0,0,1-26.88,7.92A62,62,0,0,1,414.4,232a57.53,57.53,0,0,1-20.85-10.37A61.92,61.92,0,0,1,378,203.31a66.88,66.88,0,0,1-8.06-25.45A54.75,54.75,0,0,1,372,154.12a58.73,58.73,0,0,1,11.11-20,61.87,61.87,0,0,1,18.43-14.68A69.2,69.2,0,0,1,426,112q14.1-1.71,24.26,1.25a75.77,75.77,0,0,1,17.53,7.36l-1.12-9.19q-1.71-14.1-11.46-17.59T430.7,92.11a109.62,109.62,0,0,0-24.79,5.8q-11.32,4.19-22.82,9.3l6-50.18a175.93,175.93,0,0,1,29.92-9.69,312,312,0,0,1,32.29-5.63,124.73,124.73,0,0,1,29.85,0,71.26,71.26,0,0,1,26.68,8.42,58,58,0,0,1,19.8,18.44q8,11.79,9.89,30.21L548.24,215l-61,12.68Zm-45.8-52q-10.23,2.8-16.29,9.29t-4.28,13.42q2.07,6.92,10,9.52t19.66-.68q11.73-3.28,16.85-9.82T468,163.47q-1.62-5.7-9-9T438.94,154.86Z"/><path class="cls-1" d="M713.56,189.5A107.74,107.74,0,0,1,678.27,205a164.26,164.26,0,0,1-18.26,3.3,103.18,103.18,0,0,1-39.32-2.38,95.77,95.77,0,0,1-33-15.74,90.21,90.21,0,0,1-23.91-26.65A88.85,88.85,0,0,1,552,128.39q-2.71-22.36,2.77-41.23a86.92,86.92,0,0,1,17.62-32.93,94.56,94.56,0,0,1,30-22.92,121.88,121.88,0,0,1,39.66-11.5q21.76-2.64,38.71,2.46A179.4,179.4,0,0,1,709.7,33.38l-34,57.93A38.08,38.08,0,0,0,665.05,87a59.26,59.26,0,0,0-11.87-1.68,52.82,52.82,0,0,0-11.26.75,21,21,0,0,0-8.48,3.2,41.15,41.15,0,0,0-9.08,8.42,31.82,31.82,0,0,0-5.34,9.82,23.2,23.2,0,0,0-.87,10.83,26.17,26.17,0,0,0,4.62,11.1q7.61,11.52,19.29,12.9t23.5-6.27l14.66-9.86,48.38,50.11A79.73,79.73,0,0,1,713.56,189.5Z"/><path class="cls-1" d="M905.1,70q5.63,20.79,2.78,39.63a89.15,89.15,0,0,1-12.34,34.15,91,91,0,0,1-25.1,26.37,108.4,108.4,0,0,1-35.81,16.32A115.06,115.06,0,0,1,795.25,190a91.24,91.24,0,0,1-35.13-10.2,87.28,87.28,0,0,1-27.72-23.38q-11.76-14.9-17.08-35.71-5.62-20.79-2.79-39.63a89,89,0,0,1,37.41-60.83,108.55,108.55,0,0,1,35.8-16.32A114.15,114.15,0,0,1,825,.43a91.4,91.4,0,0,1,35,10.22,86.91,86.91,0,0,1,27.74,23.53Q899.46,49.24,905.1,70ZM779.53,111.68Q786.19,123,798,125.3t25.45-5.57q13.35-7.83,17.43-19.07t-2.27-22.58q-6.63-11-18.43-13.47T795,70q-13.66,7.88-17.72,19.25T779.53,111.68Z"/><path class="cls-2" d="M592.77,220l149.16,176.1-74.65,39.18L642.1,403,590,411.08l-5.67,38.63-78-15.3Zm-5.38,149.85,52.48-12.73-33.42-61.06Z"/><path class="cls-2" d="M759.58,238.09,766,265.21l.49-.12q-.1-28.62,30.19-35.82A102.39,102.39,0,0,1,809.35,227l-.34,55a26.79,26.79,0,0,0-3.72.63l-4.89,1.16a26.26,26.26,0,0,0-16.11,10.92q-5.87,8.49-2.43,22.9l14.92,62.78-50.26,16.59L711,254.27Z"/><path class="cls-2" d="M903.42,395q-3.6.57-7.83,1.08Q871.67,399,857,389.8t-17.63-33.65l-7.19-59.06L818.52,299l-3.76-43.3,11.72-1.42-2-16.45,51.11-31,5,40.88,19.82-5.45,2.84,46.19-16.94,2.06,5.3,43.62q.92,7.47,3.34,9.71t9.9,1.33a45.61,45.61,0,0,0,5.2-.89,26,26,0,0,0,3.65-1.2L911,393.48Q907,394.46,903.42,395Z"/><path class="cls-2" d="M935.36,345.42a82.83,82.83,0,0,0,15-.56q3.48-.42,7.34-1a42.32,42.32,0,0,0,6.88-1.6,13.53,13.53,0,0,0,5-2.75,5.18,5.18,0,0,0,1.57-4.75q-.45-3.74-4.55-5.13a68.64,68.64,0,0,0-9.9-2.46c-3.89-.71-8.16-1.58-12.84-2.61a40.85,40.85,0,0,1-13.19-5.48,37.48,37.48,0,0,1-11-11.19q-4.81-7.25-6.32-19.71a42.85,42.85,0,0,1,1.27-16.6,39.45,39.45,0,0,1,8.71-15.73,54.85,54.85,0,0,1,17.41-12.74q11-5.39,27.18-7.36,6.23-.75,12.53-1t12-.07q5.71.19,10.56.48c3.22.2,6,.42,8.17.65l5.34,43.87q-6.42-.73-12.52-1a80.11,80.11,0,0,0-13.08.58c-1,.12-2.57.36-4.72.7a43.68,43.68,0,0,0-6.39,1.54,17.65,17.65,0,0,0-5.47,2.81,4.54,4.54,0,0,0-2,4.3q.48,4,4.72,5.49a60.5,60.5,0,0,0,10.3,2.54q6.06,1,13.35,2.68a45.42,45.42,0,0,1,13.7,5.54A37.24,37.24,0,0,1,1025.73,316q4.92,7.25,6.45,19.7,1.63,13.45-3.13,23.14A43.68,43.68,0,0,1,1015.34,375a71,71,0,0,1-21.13,10.29,146.83,146.83,0,0,1-25.65,5.4A167.12,167.12,0,0,1,947.85,392a149.18,149.18,0,0,1-20.8-1.51l-5.67-46.61A127,127,0,0,0,935.36,345.42Z"/></g></g></svg>